<svg width="16" height="16" viewBox="0 0 16 16" fill="none" xmlns="http://www.w3.org/2000/svg">
  <path d="M3.31469 12.0404C1.98504 10.7582 1.31086 9.39639 1.31086 7.9929V1.33335H13.1084L13.6309 0.681564L13.1084 0H0.491577C0.220157 7.47028e-05 0 0.223909 0 0.500011V7.9929C0 9.77676 0.811787 11.4641 2.41282 13.008C3.98701 14.526 5.9317 15.4824 6.9508 15.928L7.0155 15.9563C7.07677 15.9831 7.14429 15.9997 7.20963 16C7.27644 16.0003 7.34112 15.9837 7.40377 15.9563L7.46847 15.928C7.8327 15.7687 8.31548 15.5438 8.85703 15.2517C8.6179 14.9623 8.39994 14.6483 8.39994 14.6483C8.39994 14.6483 7.21113 14.6056 7.20963 14.6049C6.22623 14.1538 4.61928 13.2984 3.31469 12.0404Z" fill="#2B82FB"/>
  <path d="M13.9278 1.8689e-08H13.1085V7.99288C13.1085 9.39637 12.4343 10.7582 11.1047 12.0403C9.80007 13.2984 8.19312 14.1538 7.20972 14.6049C7.21197 14.6059 7.94968 14.8854 8.85711 15.2517C9.83074 14.7266 10.995 13.9834 12.0065 13.008C13.6075 11.464 14.4193 9.77671 14.4193 7.99285V0.500011C14.4193 0.22381 14.1993 -7.46841e-05 13.9278 1.8689e-08Z" fill="#00AB47"/>
  <path d="M5.81288 11.5748L6.88336 11.5078L7.20964 10.8309C6.55762 10.5129 5.94368 10.1089 5.49519 9.66229C4.89321 9.06288 4.58796 8.44733 4.58796 7.8328V4.66684L4.99441 3.9979L4.58796 3.3335H3.76868C3.49726 3.33357 3.2771 3.5574 3.2771 3.83351V7.83277C3.2771 9.43009 4.44905 10.7191 5.81286 11.5748H5.81288Z" fill="#FFBA00"/>
  <path d="M9.83129 4.6666V7.83053C9.83129 8.44529 9.52599 9.06121 8.92385 9.66125C8.47512 10.1084 7.86126 10.5127 7.2096 10.8306L5.81284 11.5746C6.18454 11.8078 6.57041 12.009 6.95077 12.1753L7.01547 12.2036C7.07763 12.2308 7.14331 12.25 7.2096 12.2499C7.27548 12.2499 7.34197 12.2306 7.40374 12.2036L7.46844 12.1753C7.99091 11.9468 8.99389 11.458 9.84123 10.6137C10.6923 9.76556 11.1421 8.80319 11.1421 7.83053V3.83326C11.1421 3.55706 10.9221 3.33318 10.6505 3.33325H4.58789V4.66657H9.83126L9.83129 4.6666Z" fill="#FD2C25"/>
</svg>